# xmcd CD database file
#
# Track frame offsets:
#	150
#	21740
#	40788
#	64914
#	83072
#	102554
#	121425
#	139050
#
# Disc length: 2154 seconds
#
# Revision: 0
# Processed by: cddbd v1.5PL3 Copyright (c) Steve Scherf et al.
# Submitted via: CDex 1.50beta8
#
DISCID=71086808
DTITLE=鳥居花音 - aile
DYEAR=2003
DGENRE=Vocal
TTITLE0=snowy crystal
TTITLE1=Oh my happydays
TTITLE2=Take it easy
TTITLE3=Scarlet
TTITLE4=Dear my time
TTITLE5=Comme tous les jours
TTITLE6=Birds
TTITLE7=over tha rain
EXTD=YEAR: 2003
EXTT0=
EXTT1=
EXTT2=
EXTT3=
EXTT4=
EXTT5=
EXTT6=
EXTT7=
PLAYORDER=
